<?xml version="1.0" standalone="no"?>
<!DOCTYPE svg PUBLIC "-//W3C//DTD SVG 20010904//EN"
 "http://www.w3.org/TR/2001/REC-SVG-20010904/DTD/svg10.dtd">
<svg version="1.0" xmlns="http://www.w3.org/2000/svg"
 width="200.000000pt" height="200.000000pt" viewBox="0 0 200.000000 200.000000"
 preserveAspectRatio="xMidYMid meet">

<g transform="translate(0.000000,200.000000) scale(0.100000,-0.100000)"
fill="#000000" stroke="none">
<path d="M1492 1238 c-14 -14 -17 -444 -3 -466 5 -9 30 -12 87 -10 l79 3 3
229 c2 160 -1 233 -9 242 -15 18 -140 19 -157 2z"/>
<path d="M347 1233 c-4 -3 -7 -111 -7 -239 0 -202 2 -233 16 -238 28 -11 140
-6 152 6 13 13 18 431 6 462 -5 13 -22 16 -83 16 -43 0 -81 -3 -84 -7z"/>
<path d="M1700 1021 l0 -161 39 0 c21 0 44 6 50 14 8 9 11 60 9 157 l-3 144
-47 3 -48 3 0 -160z"/>
<path d="M211 1126 c-8 -9 -11 -60 -9 -157 l3 -144 48 -3 47 -3 0 160 0 161
-39 0 c-21 0 -44 -6 -50 -14z"/>
<path d="M669 1043 c-5 -15 -11 -43 -12 -63 -2 -32 0 -35 22 -32 29 3 27 0 35
35 5 20 3 27 -9 27 -9 0 -15 -9 -15 -26 0 -14 -4 -23 -9 -20 -9 6 2 72 14 84
3 4 10 0 15 -8 11 -18 25 -6 17 15 -10 25 -46 18 -58 -12z"/>
<path d="M758 1009 c-1 -34 0 -63 3 -65 3 -2 17 26 32 61 25 65 26 80 1 48
-13 -17 -13 -17 -14 0 0 9 -4 17 -9 17 -5 0 -11 -27 -13 -61z"/>
<path d="M846 1058 c-6 -20 -26 -106 -26 -112 0 -3 4 -6 8 -6 5 0 13 17 19 38
l10 37 2 -37 c0 -21 5 -38 10 -38 4 0 16 17 24 38 l17 37 -6 -37 c-3 -21 -1
-38 4 -38 8 0 32 86 32 116 0 26 -26 15 -43 -18 l-16 -33 0 33 c-1 22 -6 32
-16 32 -9 0 -17 -6 -19 -12z"/>
<path d="M1026 1058 c-15 -47 -26 -111 -21 -116 8 -9 25 19 25 41 0 9 4 17 10
17 5 0 7 -13 4 -30 -11 -52 12 -33 24 21 7 28 12 57 12 65 0 18 -49 19 -54 2z
m26 -30 c-7 -7 -12 -8 -12 -2 0 14 12 26 19 19 2 -3 -1 -11 -7 -17z"/>
<path d="M1125 1058 c-39 -109 -42 -127 -19 -107 13 10 17 10 24 -1 14 -22 19
-9 26 58 6 54 5 62 -10 62 -9 0 -19 -6 -21 -12z m6 -71 c-13 -13 -15 1 -4 30
7 17 8 17 11 -1 2 -10 -1 -23 -7 -29z"/>
<path d="M1204 1038 c0 -18 -3 -48 -8 -65 -5 -21 -4 -33 2 -33 6 0 16 25 23
55 7 30 16 55 21 55 4 0 8 5 8 10 0 6 -10 10 -23 10 -20 0 -23 -5 -23 -32z"/>
<path d="M1279 1054 c-11 -14 -10 -21 4 -46 17 -29 13 -64 -4 -37 -11 18 -23
4 -15 -16 9 -24 39 -14 50 17 8 21 6 32 -7 46 -18 20 -14 34 9 25 8 -3 14 1
14 11 0 21 -34 21 -51 0z"/>
</g>
</svg>
